<?xml version="1.0" encoding="UTF-8" standalone="no"?>
<!-- Created with Inkscape (http://www.inkscape.org/) -->

<svg
   width="150mm"
   height="50mm"
   viewBox="0 0 566.92903 188.97638"
   version="1.1"
   id="svg1"
   inkscape:version="1.3 (0e150ed6c4, 2023-07-21)"
   sodipodi:docname="bsmntec.svg"
   xmlns:inkscape="http://www.inkscape.org/namespaces/inkscape"
   xmlns:sodipodi="http://sodipodi.sourceforge.net/DTD/sodipodi-0.dtd"
   xmlns="http://www.w3.org/2000/svg"
   xmlns:svg="http://www.w3.org/2000/svg">
  <sodipodi:namedview
     id="namedview1"
     pagecolor="#505050"
     bordercolor="#ffffff"
     borderopacity="1"
     inkscape:showpageshadow="0"
     inkscape:pageopacity="0"
     inkscape:pagecheckerboard="1"
     inkscape:deskcolor="#505050"
     inkscape:document-units="mm"
     showgrid="true"
     inkscape:zoom="3.6918831"
     inkscape:cx="274.38572"
     inkscape:cy="99.813561"
     inkscape:window-width="3440"
     inkscape:window-height="1369"
     inkscape:window-x="-8"
     inkscape:window-y="-8"
     inkscape:window-maximized="1"
     inkscape:current-layer="layer2">
    <inkscape:grid
       id="grid1"
       units="mm"
       originx="0"
       originy="0"
       spacingx="18.897638"
       spacingy="18.897638"
       empcolor="#0099e5"
       empopacity="0.30196078"
       color="#0099e5"
       opacity="0.14901961"
       empspacing="1"
       dotted="false"
       gridanglex="30"
       gridanglez="30"
       visible="true" />
  </sodipodi:namedview>
  <defs
     id="defs1">
    <linearGradient
       id="swatch19"
       inkscape:swatch="solid">
      <stop
         style="stop-color:#000000;stop-opacity:1;"
         offset="0"
         id="stop19" />
    </linearGradient>
    <rect
       x="132.28346"
       y="18.897638"
       width="604.72443"
       height="151.18111"
       id="rect5" />
    <rect
       x="132.28346"
       y="18.897638"
       width="472.44095"
       height="151.18111"
       id="rect3" />
  </defs>
  <g
     inkscape:label="Layer 1"
     inkscape:groupmode="layer"
     id="layer1">
    <g
       id="g43"
       transform="translate(-0.01374323,-245.66908)">
      <g
         id="path25"
         style="stroke-width:1.00157;stroke-dasharray:none">
        <path
           id="path38"
           style="color:#000000;fill:#000000;stroke-width:1.00157;stroke-dasharray:none"
           d="m 66.140619,295.93747 c -8.336181,0.013 -16.465104,2.43497 -23.503904,6.87695 -1.128072,2.87531 -1.789536,5.91234 -1.816406,9.00586 8.97e-4,2.76454 0.602775,5.44493 1.480468,8.04297 5.898733,-6.92586 14.56023,-11.07672 23.841795,-11.07617 9.279101,0.005 17.937545,4.15956 23.832029,11.08594 0.881425,-2.603 1.487355,-5.29001 1.488281,-8.06055 -0.0037,-3.08216 -0.641774,-6.112 -1.740234,-8.98633 -7.058646,-4.45892 -15.213891,-6.88667 -23.57617,-6.88867 z m -43.884762,40.07422 c -0.136269,1.38058 -0.328184,2.75576 -0.333984,4.14648 v 0.006 c 0.0032,24.45535 19.764595,44.21486 44.220699,44.21484 24.457428,2e-5 44.217748,-19.76158 44.218748,-44.21875 -0.001,-1.37428 -0.18599,-2.73475 -0.31446,-4.0996 -3.76688,6.81933 -9.05084,12.70936 -15.544916,17.16015 -5.082996,11.06874 -16.117568,18.26224 -28.349606,18.30664 h -0.0098 -0.01172 C 53.871328,371.4856 42.818055,364.2627 37.748043,353.15817 31.276296,348.70458 26.008648,342.82055 22.255857,336.01169 Z" />
      </g>
      <g
         id="path27"
         style="stroke-width:1.00157;stroke-dasharray:none">
        <path
           id="path40"
           style="color:#000000;fill:#000000;stroke-width:1.00157;stroke-dasharray:none"
           d="m 66.142572,267.58982 c -24.458091,-2e-5 -44.220722,19.7626 -44.220699,44.2207 -2.3e-5,24.45808 19.762608,44.22072 44.220699,44.2207 24.458092,2e-5 44.218768,-19.76262 44.218748,-44.2207 2e-5,-24.4581 -19.760656,-44.22072 -44.218748,-44.2207 z m 0,12.84961 c 17.28956,4.6e-4 31.369872,14.08152 31.369138,31.37109 -4.62e-4,17.28871 -14.080417,31.36868 -31.369138,31.36914 -17.289557,7.3e-4 -31.372582,-14.07959 -31.373044,-31.36914 -7.34e-4,-17.29041 14.082647,-31.37182 31.373044,-31.37109 z" />
      </g>
      <g
         id="path37"
         style="stroke-width:1.00157;stroke-dasharray:none">
        <path
           id="path42"
           style="color:#000000;fill:#000000;stroke-width:1.00157;stroke-dasharray:none"
           d="m 66.144525,324.28513 c -6.453405,0.0459 -12.768075,1.58099 -18.574217,4.33007 4.736462,5.26512 11.380698,8.48053 18.572264,8.51563 7.199769,-0.0365 13.848027,-3.26082 18.583983,-8.53711 -5.809499,-2.7427 -12.128279,-4.27009 -18.58203,-4.30859 z m -43.888668,40.0703 c -0.136393,1.38122 -0.328184,2.75707 -0.333984,4.14844 v 0.006 c 0.0032,24.45534 19.764596,44.21486 44.220699,44.21484 24.457429,2e-5 44.219698,-19.76157 44.220698,-44.21875 -0.001,-1.37414 -0.18797,-2.73296 -0.31641,-4.09765 -3.76729,6.8198 -9.05006,12.7113 -15.544916,17.16211 -5.083388,11.06767 -16.116309,18.25833 -28.347653,18.30273 h -0.01172 -0.0098 C 53.873241,399.83145 42.81802,392.60853 37.748008,381.50401 31.275559,377.04993 26.008684,371.16538 22.255822,364.35557 Z" />
      </g>
    </g>
  </g>
  <g
     inkscape:groupmode="layer"
     id="layer2"
     inkscape:label="Layer 2">
    <path
       style="font-weight:bold;font-size:96px;line-height:1;font-family:'Space Mono';-inkscape-font-specification:'Space Mono, Bold';white-space:pre;stroke-width:7.55906;stroke-linecap:square"
       d="m 149.8512,93.810375 h -12.096 v -67.2 h 12.096 v 26.496 h 1.728 q 1.92,-3.936 5.568,-6.048 3.648,-2.208 9.312,-2.208 4.224,0 7.968,1.632 3.84,1.632 6.624,4.8 2.88,3.072 4.512,7.584 1.728,4.512 1.728,10.272 v 1.728 q 0,5.856 -1.632,10.368 -1.632,4.512 -4.416,7.68 -2.784,3.072 -6.624,4.704 -3.744,1.536 -8.16,1.536 -3.264,0 -5.664,-0.672 -2.4,-0.672 -4.224,-1.824 -1.728,-1.152 -2.976,-2.592 -1.152,-1.536 -2.016,-3.168 h -1.728 z m 12.672,-10.176 q 5.664,0 9.12,-3.456 3.552,-3.552 3.552,-9.6 v -1.152 q 0,-6.048 -3.552,-9.504 -3.456,-3.552 -9.12,-3.552 -5.664,0 -9.216,3.648 -3.456,3.552 -3.456,9.408 v 1.152 q 0,5.856 3.456,9.504 3.552,3.552 9.216,3.552 z m 51.16796,-24 q 0,2.304 2.4,3.36 2.4,0.96 8.736,1.632 7.296,0.768 11.904,4.416 4.608,3.552 4.608,9.984 v 0.576 q 0,7.104 -5.184,11.328 -5.184,4.224 -14.592,4.224 -5.568,0 -9.504,-1.44 -3.936,-1.44 -6.528,-3.552 -2.592,-2.208 -4.032,-4.8 -1.344,-2.688 -1.824,-5.184 l 11.136,-3.648 q 0.768,3.072 3.168,5.376 2.496,2.304 7.584,2.304 4.512,0 6.144,-1.344 1.728,-1.44 1.728,-3.072 0,-0.96 -0.48,-1.728 -0.384,-0.864 -1.536,-1.536 -1.152,-0.768 -3.168,-1.248 -1.92,-0.48 -4.896,-0.768 -8.064,-0.672 -12.864,-4.128 -4.704,-3.552 -4.704,-10.368 v -0.576 q 0,-3.552 1.536,-6.24 1.536,-2.688 4.032,-4.512 2.496,-1.92 5.76,-2.88 3.264,-0.96 6.72,-0.96 4.512,0 7.776,1.152 3.36,1.056 5.664,2.88 2.304,1.728 3.744,3.936 1.44,2.112 2.208,4.128 l -10.944,4.416 q -0.864,-2.592 -2.976,-4.032 -2.112,-1.536 -5.472,-1.536 -3.072,0 -4.608,1.152 -1.536,1.056 -1.536,2.688 z m 91.39195,34.176 h -12.096 v -33.408 q 0,-2.016 -1.056,-2.976 -0.96,-1.056 -2.592,-1.056 -1.92,0 -3.072,1.152 -1.056,1.152 -1.056,3.456 v 32.832 h -12.096 v -33.408 q 0,-2.016 -1.152,-2.976 -1.056,-1.056 -2.592,-1.056 -1.728,0 -2.88,1.152 -1.152,1.152 -1.152,3.456 v 32.832 h -12.096 v -47.616 h 12.096 v 4.608 h 1.728 q 0.576,-2.592 2.592,-4.224 2.112,-1.728 5.472,-1.728 3.168,0 5.376,1.728 2.208,1.632 2.976,4.224 h 1.728 q 0.768,-2.592 3.168,-4.224 2.496,-1.728 6.144,-1.728 4.8,0 7.68,3.264 2.88,3.168 2.88,8.832 z m 23.03995,0 h -12.096 v -47.616 h 12.096 v 7.104 h 1.728 q 1.632,-4.032 5.28,-6.24 3.648,-2.208 8.544,-2.208 3.456,0 6.432,1.152 3.072,1.056 5.376,3.36 2.304,2.304 3.552,5.856 1.344,3.552 1.344,8.448 v 30.144 h -12.096 v -27.072 q 0,-5.088 -2.496,-7.968 -2.4,-2.976 -7.008,-2.976 -5.376,0 -8.064,3.648 -2.592,3.552 -2.592,9.6 z m 45.31196,-47.616 h 14.112 v -19.584 h 12.096 v 19.584 h 17.184 v 11.52 h -17.184 v 21.696 q 0,2.88 2.592,2.88 h 12.864 v 11.52 h -20.16 q -3.264,0 -5.376,-2.112 -2.016,-2.112 -2.016,-5.376 v -28.608 h -14.112 z m 70.75195,27.744 q 0.096,2.112 0.96,3.936 0.96,1.728 2.496,3.072 1.632,1.248 3.648,2.016 2.112,0.672 4.416,0.672 4.512,0 6.912,-1.536 2.4,-1.632 3.456,-3.84 l 10.368,5.76 q -0.864,1.824 -2.4,3.84 -1.536,1.92 -4.032,3.552 -2.4,1.632 -5.952,2.688 -3.456,1.056 -8.16,1.056 -5.376,0 -9.792,-1.728 -4.416,-1.728 -7.68,-4.992 -3.168,-3.264 -4.992,-7.968 -1.728,-4.704 -1.728,-10.656 v -0.576 q 0,-5.472 1.824,-9.984 1.92,-4.512 5.184,-7.68 3.264,-3.168 7.584,-4.896 4.416,-1.824 9.408,-1.824 6.144,0 10.56,2.208 4.416,2.112 7.296,5.472 2.88,3.264 4.224,7.296 1.344,3.936 1.344,7.68 v 6.432 z m 11.424,-18.144 q -4.608,0 -7.488,2.4 -2.88,2.304 -3.744,5.376 h 22.464 q -0.576,-3.36 -3.648,-5.568 -2.976,-2.208 -7.584,-2.208 z m 83.13595,20.544 q -1.632,8.448 -7.776,13.632 -6.048,5.184 -16.224,5.184 -5.28,0 -9.888,-1.632 -4.512,-1.632 -7.872,-4.704 -3.36,-3.072 -5.28,-7.584 -1.92,-4.512 -1.92,-10.272 v -1.152 q 0,-5.76 1.92,-10.368 1.92,-4.608 5.28,-7.872 3.456,-3.264 7.968,-4.992 4.608,-1.728 9.792,-1.728 9.984,0 16.128,5.184 6.24,5.184 7.872,13.632 l -11.904,3.072 q -0.576,-4.224 -3.648,-7.296 -3.072,-3.072 -8.64,-3.072 -2.592,0 -4.896,0.96 -2.304,0.96 -4.032,2.784 -1.728,1.728 -2.784,4.32 -0.96,2.496 -0.96,5.664 v 0.576 q 0,3.168 0.96,5.664 1.056,2.4 2.784,4.032 1.728,1.632 4.032,2.496 2.304,0.768 4.896,0.768 5.568,0 8.448,-2.784 2.976,-2.784 3.84,-7.488 z"
       id="text4"
       transform="matrix(1.0367997,0,0,1.0367997,-10.541073,31.365349)"
       aria-label="bsmntec" />
  </g>
</svg>
